<!DOCTYPE svg PUBLIC "-//W3C//DTD SVG 1.1//EN" "http://www.w3.org/Graphics/SVG/1.1/DTD/svg11.dtd">
<!-- Uploaded to: SVG Repo, www.svgrepo.com, Transformed by: SVG Repo Mixer Tools -->
<svg width="72px" height="72px" viewBox="-2.4 -2.4 28.80 28.80" fill="none" xmlns="http://www.w3.org/2000/svg" stroke="#ffffff">
<g id="SVGRepo_bgCarrier" stroke-width="0">
<rect x="-2.4" y="-2.4" width="28.80" height="28.80" rx="0" fill="#488bad" strokewidth="0"/>
</g>
<g id="SVGRepo_tracerCarrier" stroke-linecap="round" stroke-linejoin="round"/>
<g id="SVGRepo_iconCarrier"> <path d="M11 20H21V10C21 8.89543 20.1046 8 19 8H15M11 16H11.01M17 16H17.01M7 16H7.01M11 12H11.01M17 12H17.01M7 12H7.01M11 8H11.01M7 8H7.01M15 20V6C15 4.89543 14.1046 4 13 4H5C3.89543 4 3 4.89543 3 6V20H15Z" stroke="#ffffff" stroke-width="2" stroke-linecap="round" stroke-linejoin="round"/> </g>
</svg>